<?xml version="1.0" encoding="UTF-8"?> <svg xmlns="http://www.w3.org/2000/svg" width="90" height="90" viewBox="0 0 90 90" fill="none"> <g clip-path="url(#clip0_4051_12325)"> <path fill-rule="evenodd" clip-rule="evenodd" d="M19.854 81.7224C27.1971 86.621 35.8283 89.2311 44.6553 89.2224C56.468 89.1991 67.7903 84.4961 76.1432 76.1432C84.4961 67.7903 89.1991 56.468 89.2224 44.6553C89.2311 35.8283 86.621 27.1971 81.7224 19.854C76.8238 12.511 69.8569 6.78626 61.7035 3.40428C53.5501 0.0223024 44.5766 -0.864863 35.9188 0.855064C27.261 2.57499 19.308 6.82469 13.0663 13.0663C6.82469 19.308 2.57499 27.261 0.855064 35.9188C-0.864863 44.5766 0.0223024 53.5501 3.40428 61.7035C6.78626 69.8569 12.511 76.8238 19.854 81.7224ZM23.5322 13.0389C29.7869 8.86887 37.1379 6.64769 44.6553 6.65641C54.722 6.67973 64.369 10.6921 71.4831 17.8144C78.5973 24.9368 82.5984 34.5885 82.61 44.6553C82.61 52.1726 80.3803 59.521 76.203 65.7709C72.0257 72.0207 66.0885 76.8911 59.1425 79.7658C52.1966 82.6406 44.554 83.3905 37.1817 81.9207C29.8095 80.4509 23.0388 76.8275 17.7263 71.5089C12.4139 66.1902 8.79831 59.4154 7.3371 52.0414C5.87589 44.6674 6.63468 37.0258 9.51749 30.0832C12.4003 23.1406 17.2776 17.209 23.5322 13.0389ZM41.3443 23.9093V22.085C41.3443 21.2081 41.6926 20.3672 42.3127 19.7472C42.9327 19.1271 43.7736 18.7788 44.6505 18.7788C45.5273 18.7788 46.3683 19.1271 46.9883 19.7472C47.6083 20.3672 47.9566 21.2081 47.9566 22.085V23.9028C48.4293 24.0347 48.8953 24.1954 49.3519 24.3845C51.5912 25.312 53.5051 26.8828 54.8517 28.8981C56.1983 30.9134 56.917 33.2827 56.917 35.7065C56.917 36.5834 56.5687 37.4243 55.9486 38.0443C55.3286 38.6644 54.4877 39.0127 53.6108 39.0127C52.734 39.0127 51.893 38.6644 51.273 38.0443C50.653 37.4243 50.3047 36.5834 50.3047 35.7065C50.3047 34.5905 49.9737 33.4996 49.3537 32.5717C48.7337 31.6438 47.8525 30.9206 46.8214 30.4935C45.7904 30.0664 44.6559 29.9547 43.5613 30.1724C42.4668 30.3901 41.4614 30.9275 40.6723 31.7166C39.8832 32.5058 39.3458 33.5112 39.128 34.6057C38.9103 35.7003 39.0221 36.8348 39.4491 37.8658C39.8762 38.8969 40.5994 39.7781 41.5273 40.3981C42.4552 41.0181 43.5462 41.349 44.6621 41.349C47.9123 41.349 51.0294 42.6402 53.3276 44.9384C55.6259 47.2366 56.917 50.3537 56.917 53.6039C56.917 56.8541 55.6259 59.9711 53.3276 62.2694C51.8238 63.7732 49.9695 64.8458 47.9566 65.4076V67.2255C47.9567 68.1064 47.6098 68.952 46.991 69.579C46.3722 70.206 45.5313 70.5641 44.6505 70.5757C43.7736 70.5757 42.9327 70.2274 42.3127 69.6074C41.6926 68.9873 41.3443 68.1464 41.3443 67.2695V65.4011C39.3405 64.8375 37.4946 63.7673 35.9967 62.2694C33.6984 59.9711 32.4073 56.8541 32.4073 53.6039C32.4073 52.727 32.7556 51.8861 33.3756 51.2661C33.9957 50.646 34.8366 50.2977 35.7135 50.2977C36.5903 50.2977 37.4312 50.646 38.0513 51.2661C38.6713 51.8861 39.0196 52.727 39.0196 53.6039C39.0196 54.7199 39.3505 55.8108 39.9706 56.7387C40.5906 57.6666 41.4718 58.3898 42.5028 58.8169C43.5339 59.244 44.6684 59.3557 45.7629 59.138C46.8575 58.9203 47.8629 58.3829 48.652 57.5937C49.4411 56.8046 49.9785 55.7992 50.1962 54.7047C50.414 53.6101 50.3022 52.4756 49.8752 51.4446C49.4481 50.4135 48.7249 49.5323 47.797 48.9123C46.8691 48.2923 45.7781 47.9614 44.6621 47.9614C42.2384 47.9614 39.869 47.2426 37.8537 45.896C35.8384 44.5495 34.2677 42.6355 33.3401 40.3962C32.4126 38.157 32.1699 35.6929 32.6428 33.3157C33.1156 30.9385 34.2828 28.7549 35.9967 27.041C37.4852 25.5525 39.328 24.4764 41.3443 23.9093Z" fill="url(#paint0_radial_4051_12325)"></path> </g> <defs> <radialGradient id="paint0_radial_4051_12325" cx="0" cy="0" r="1" gradientUnits="userSpaceOnUse" gradientTransform="translate(27.3852 13.03) rotate(54.7824) scale(50.5509 50.5509)"> <stop stop-color="#9C4FFF"></stop> <stop offset="1" stop-color="#7000FF"></stop> </radialGradient> <clipPath id="clip0_4051_12325"> <rect width="90" height="90" fill="white"></rect> </clipPath> </defs> </svg> 