<?xml version="1.0" encoding="UTF-8"?> <svg xmlns="http://www.w3.org/2000/svg" width="84" height="92" viewBox="0 0 84 92" fill="none"> <g clip-path="url(#clip0_4051_12331)"> <path fill-rule="evenodd" clip-rule="evenodd" d="M83.4035 29.2933V84.2853C83.3919 86.3277 82.5755 88.2832 81.1312 89.7274C79.687 91.1716 77.7315 91.9881 75.6891 91.9997H7.71438C5.67197 91.9881 3.7165 91.1716 2.27228 89.7274C0.828051 88.2832 0.011572 86.3277 0 84.2853V29.0503C0.0114171 28.177 0.36341 27.3427 0.980978 26.7251C1.08821 26.6179 1.20198 26.5187 1.32135 26.4278L14.4599 3.79107C15.1394 2.64064 16.106 1.68642 17.2651 1.02186C18.4243 0.357302 19.7361 0.00518598 21.0722 0H41.7059H62.3331C63.6692 0.00518598 64.9811 0.357302 66.1402 1.02186C67.2993 1.68642 68.266 2.64064 68.9455 3.79107L82.8085 27.1877C82.9766 27.4305 83.1114 27.694 83.2099 27.971C83.3339 28.3089 83.4017 28.6666 83.4089 29.0295C83.4107 29.1177 83.4089 29.2057 83.4035 29.2933ZM21.0722 6.61233H38.3997V25.7441H9.18534L20.1465 7.14132C20.2401 6.97908 20.3752 6.84462 20.5378 6.75168C20.7005 6.65874 20.8849 6.61065 21.0722 6.61233ZM45.012 6.61233V25.7441H74.22L63.2589 7.14132C63.159 6.98473 63.0225 6.85477 62.8613 6.76262C62.7 6.67047 62.5188 6.6189 62.3331 6.61233H45.012ZM6.61233 84.2853V32.3565H76.7912V84.2853C76.7912 84.5776 76.6751 84.8579 76.4684 85.0646C76.2617 85.2712 75.9814 85.3874 75.6891 85.3874H7.71438C7.4221 85.3874 7.14179 85.2712 6.93511 85.0646C6.72844 84.8579 6.61233 84.5776 6.61233 84.2853ZM20.939 49.9893H36.456C37.3328 49.9893 38.1738 49.641 38.7938 49.0209C39.4138 48.4009 39.7621 47.56 39.7621 46.6831C39.7621 45.8063 39.4138 44.9653 38.7938 44.3453C38.1738 43.7253 37.3328 43.377 36.456 43.377H20.939C20.0622 43.377 19.2213 43.7253 18.6012 44.3453C17.9812 44.9653 17.6329 45.8063 17.6329 46.6831C17.6329 47.56 17.9812 48.4009 18.6012 49.0209C19.2213 49.641 20.0622 49.9893 20.939 49.9893Z" fill="url(#paint0_radial_4051_12331)"></path> </g> <defs> <radialGradient id="paint0_radial_4051_12331" cx="0" cy="0" r="1" gradientUnits="userSpaceOnUse" gradientTransform="translate(25.601 13.4356) rotate(57.3818) scale(50.5579 48.7218)"> <stop stop-color="#9C4FFF"></stop> <stop offset="1" stop-color="#7000FF"></stop> </radialGradient> <clipPath id="clip0_4051_12331"> <rect width="84" height="92" fill="white"></rect> </clipPath> </defs> </svg> 