<?xml version="1.0" encoding="UTF-8"?> <svg xmlns="http://www.w3.org/2000/svg" width="389" height="372" viewBox="0 0 389 372" fill="none"> <g clip-path="url(#clip0_4051_12335)"> <path d="M93.4276 372C87.0807 371.821 80.9355 369.731 75.7947 366.005C71.1292 362.631 67.5006 358.019 65.3194 352.691C63.1381 347.362 62.4912 341.53 63.4517 335.853L78.087 250.862C78.5711 247.242 78.1477 243.557 76.855 240.141C75.5623 236.725 73.4408 233.683 70.6812 231.29L9.49509 171.162C5.2813 167.119 2.30106 161.964 0.900593 156.295C-0.499871 150.626 -0.263061 144.676 1.58351 139.136C3.43008 133.596 6.81061 128.694 11.3323 125C15.8541 121.305 21.3314 118.969 27.128 118.263L111.942 105.391C115.478 104.91 118.841 103.564 121.732 101.473C124.623 99.3811 126.954 96.6085 128.517 93.4005L166.604 17.2265C169.15 12.0566 173.092 7.70279 177.985 4.65823C182.877 1.61366 188.525 0 194.288 0C200.05 0 205.698 1.61366 210.591 4.65823C215.483 7.70279 219.426 12.0566 221.971 17.2265L260.235 94.4585C261.798 97.6664 264.128 100.439 267.02 102.531C269.911 104.622 273.274 105.968 276.81 106.449L362.153 118.968C367.855 119.763 373.215 122.156 377.615 125.869C382.014 129.582 385.273 134.464 387.015 139.951C388.85 145.42 389.078 151.301 387.672 156.895C386.265 162.49 383.283 167.563 379.08 171.514L317.541 231.29C315.008 233.815 313.111 236.907 312.007 240.31C310.904 243.713 310.625 247.33 311.194 250.862L325.829 335.853C326.832 341.531 326.205 347.378 324.02 352.715C321.835 358.051 318.183 362.659 313.486 366.005C308.863 369.448 303.35 371.494 297.599 371.901C291.849 372.307 286.103 371.056 281.041 368.297L204.691 328.27C201.535 326.618 198.026 325.754 194.464 325.754C190.902 325.754 187.392 326.618 184.237 328.27L107.71 368.297C103.344 370.731 98.4266 372.006 93.4276 372ZM194.111 26.0429C193.296 26.0368 192.495 26.2665 191.807 26.7044C191.119 27.1424 190.572 27.77 190.232 28.5116L152.145 105.391C148.749 112.543 143.641 118.746 137.274 123.452C130.908 128.158 123.478 131.221 115.645 132.369L30.4782 144.712C29.6456 144.825 28.8598 145.164 28.2068 145.692C27.5538 146.221 27.0586 146.919 26.7753 147.71C26.543 148.514 26.5352 149.366 26.7528 150.174C26.9703 150.982 27.405 151.716 28.0096 152.294L89.7247 212.422C95.353 217.895 99.563 224.657 101.99 232.123C104.417 239.589 104.989 247.534 103.655 255.27L88.314 340.261C88.1289 341.097 88.1916 341.97 88.4945 342.772C88.7974 343.573 89.3274 344.269 90.0196 344.774C90.7118 345.279 91.5363 345.572 92.3921 345.616C93.2479 345.66 94.0979 345.453 94.8382 345.022L171.012 304.819C177.977 301.173 185.721 299.269 193.582 299.269C201.444 299.269 209.188 301.173 216.152 304.819L292.503 345.022C293.193 345.442 293.986 345.665 294.795 345.665C295.604 345.665 296.397 345.442 297.087 345.022C297.807 344.565 298.365 343.894 298.681 343.103C298.998 342.311 299.057 341.44 298.851 340.613L284.392 255.623C283.16 247.699 283.936 239.593 286.646 232.046C289.357 224.499 293.917 217.752 299.909 212.422L361.624 152.294C362.232 151.721 362.665 150.987 362.872 150.177C363.079 149.367 363.052 148.516 362.793 147.721C362.534 146.926 362.055 146.221 361.411 145.689C360.766 145.156 359.984 144.817 359.155 144.712L273.812 132.369C265.822 131.359 258.212 128.359 251.682 123.646C245.151 118.933 239.907 112.656 236.43 105.391L198.343 28.5116C197.961 27.7276 197.355 27.0746 196.602 26.6352C195.848 26.1958 194.982 25.9897 194.111 26.0429Z" fill="url(#paint0_radial_4051_12335)"></path> </g> <defs> <radialGradient id="paint0_radial_4051_12335" cx="0" cy="0" r="1" gradientUnits="userSpaceOnUse" gradientTransform="translate(119.268 54.3267) rotate(53.5969) scale(213.935 216.897)"> <stop stop-color="#9C4FFF"></stop> <stop offset="1" stop-color="#7000FF"></stop> </radialGradient> <clipPath id="clip0_4051_12335"> <rect width="389" height="372" fill="white"></rect> </clipPath> </defs> </svg> 