<?xml version="1.0" encoding="UTF-8"?> <svg xmlns="http://www.w3.org/2000/svg" width="96" height="91" viewBox="0 0 96 91" fill="none"> <g clip-path="url(#clip0_4051_12327)"> <path fill-rule="evenodd" clip-rule="evenodd" d="M47.8056 73.2341C46.3439 73.2353 44.8997 72.9162 43.5745 72.2993C42.2493 71.6824 41.0754 70.7827 40.1353 69.6635C37.2481 66.1425 33.964 61.8215 30.9179 57.0117H18.8517C18.2077 57.0151 17.5782 57.2039 17.0388 57.5557C16.4993 57.9076 16.0727 58.4074 15.81 58.9954L6.90542 79.3614C6.68544 79.8654 6.59467 80.4164 6.64131 80.9643C6.68796 81.5123 6.87057 82.04 7.17258 82.4996C7.4746 82.9592 7.88649 83.3362 8.37096 83.5964C8.85542 83.8567 9.39715 83.992 9.94709 83.99H85.6362C86.1862 83.992 86.7279 83.8567 87.2124 83.5964C87.6968 83.3362 88.1087 82.9592 88.4107 82.4996C88.7128 82.04 88.8954 81.5123 88.942 80.9643C88.9887 80.4164 88.8979 79.8654 88.6779 79.3614L79.8615 58.9954C79.5988 58.4074 79.1721 57.9076 78.6327 57.5557C78.0932 57.2039 77.4638 57.0151 76.8198 57.0117H64.566C61.3644 62.0841 57.971 66.4716 55.2555 69.7075C54.3469 70.8041 53.209 71.6882 51.9219 72.2975C50.6347 72.9068 49.2296 73.2265 47.8056 73.2341ZM68.3787 50.3994C72.1335 43.1875 74.9602 35.1481 74.9602 27.3005C74.9482 22.9075 73.8792 18.582 71.8435 14.6891C69.8077 10.7963 66.865 7.45064 63.2639 4.93463C59.6628 2.41861 55.5091 0.806197 51.1536 0.23357C46.7981 -0.339057 42.3688 0.144925 38.2398 1.64464C32.4956 3.5721 27.6117 7.45737 24.442 12.6211C17.2945 24.5245 20.8029 38.405 27.0861 50.3994H18.8076C16.8731 50.3983 14.98 50.9604 13.3596 52.0172C11.7392 53.074 10.4616 54.5797 9.6826 56.3505L0.866162 76.7165C0.181648 78.2334 -0.104722 79.8998 0.0341203 81.5582C0.172963 83.2166 0.732431 84.8122 1.65964 86.1941C2.56676 87.5589 3.79927 88.6764 5.24605 89.446C6.69284 90.2156 8.3084 90.613 9.94709 90.6024H85.6362C87.2755 90.5961 88.8874 90.1817 90.3266 89.3967C91.7657 88.6117 92.9868 87.4808 93.8796 86.106C94.7914 84.7342 95.3421 83.1544 95.4808 81.513C95.6196 79.8717 95.3417 78.2219 94.6731 76.7165L85.8566 56.3505C85.0777 54.5797 83.8 53.074 82.1796 52.0172C80.5592 50.9604 78.6662 50.3983 76.7316 50.3994H68.3787ZM47.802 6.62595C45.2959 6.64697 42.8102 7.07881 40.4439 7.90431C36.1409 9.32304 32.4738 12.2098 30.0845 16.0595C20.2542 32.414 37.4022 56.0421 45.2488 65.4316C45.5629 65.8039 45.9543 66.1033 46.3959 66.3088C46.8374 66.5144 47.3185 66.6212 47.8056 66.6218C48.2768 66.6289 48.7435 66.5296 49.171 66.3311C49.5984 66.1326 49.9756 65.8402 50.2742 65.4757C57.0628 57.3645 68.4361 41.6272 68.4361 27.3005C68.4279 23.9917 67.6224 20.7336 66.0877 17.8023C64.5529 14.871 62.3343 12.3528 59.6196 10.4611C56.1798 7.97479 52.0456 6.63334 47.802 6.62595ZM47.8077 39.6874C45.3628 39.6961 42.9703 38.9785 40.9338 37.6256C38.8973 36.2727 37.3084 34.3455 36.3687 32.0883C35.429 29.8311 35.1809 27.3457 35.6557 24.9473C36.1306 22.5489 37.3071 20.3455 39.0359 18.6167C40.7648 16.8878 42.9681 15.7113 45.3665 15.2365C47.7649 14.7616 50.2503 15.0098 52.5075 15.9495C54.7647 16.8891 56.692 18.478 58.0449 20.5145C59.3978 22.5511 60.1154 24.9435 60.1067 27.3885C60.0951 30.6468 58.7955 33.7683 56.4916 36.0723C54.1876 38.3763 51.066 39.6758 47.8077 39.6874ZM47.8077 21.6578C46.6725 21.6491 45.5602 21.9777 44.612 22.6021C43.6638 23.2265 42.9225 24.1184 42.4819 25.1647C42.0414 26.2111 41.9216 27.3647 42.1378 28.4792C42.3539 29.5938 42.8962 30.619 43.6958 31.4249C44.4955 32.2307 45.5165 32.7809 46.6293 33.0056C47.7422 33.2303 48.8967 33.1195 49.9464 32.687C50.9961 32.2546 51.8937 31.5202 52.5254 30.5768C53.1571 29.6335 53.4943 28.5238 53.4943 27.3885C53.4828 25.8839 52.88 24.4442 51.816 23.3802C50.7521 22.3162 49.3124 21.7134 47.8077 21.7019V21.6578Z" fill="url(#paint0_radial_4051_12327)"></path> </g> <defs> <radialGradient id="paint0_radial_4051_12327" cx="0" cy="0" r="1" gradientUnits="userSpaceOnUse" gradientTransform="translate(29.3168 13.2316) rotate(53.3449) scale(52.2751 53.1411)"> <stop stop-color="#9C4FFF"></stop> <stop offset="1" stop-color="#7000FF"></stop> </radialGradient> <clipPath id="clip0_4051_12327"> <rect width="96" height="91" fill="white"></rect> </clipPath> </defs> </svg> 