<?xml version="1.0" encoding="UTF-8"?> <svg xmlns="http://www.w3.org/2000/svg" width="410" height="314" viewBox="0 0 410 314" fill="none"> <g clip-path="url(#clip0_4051_12329)"> <path d="M334.306 313.994H76.267C69.4387 313.979 62.8078 311.702 57.411 307.519C52.0142 303.336 48.1558 297.482 46.439 290.873L1.07929 118.788C-0.503345 113.013 -0.342367 106.898 1.54197 101.214C3.4263 95.5293 6.9498 90.5292 11.6691 86.8425C16.3232 83.0752 21.9772 80.7507 27.9352 80.1549C33.8933 79.5591 39.8956 80.718 45.2035 83.4891L123.568 123.554C124.088 123.817 124.662 123.955 125.245 123.955C125.828 123.955 126.402 123.817 126.922 123.554C127.512 123.406 128.059 123.121 128.519 122.722C128.979 122.324 129.338 121.823 129.569 121.259L176.517 17.6557C178.998 12.3237 182.967 7.82166 187.945 4.69066C192.923 1.55967 198.7 -0.0670428 204.58 0.00604213C210.47 -0.111807 216.265 1.49655 221.252 4.6328C226.239 7.76905 230.199 12.2961 232.643 17.6557L280.297 121.789C280.521 122.326 280.857 122.809 281.283 123.205C281.71 123.601 282.216 123.9 282.768 124.083C283.322 124.337 283.924 124.469 284.533 124.469C285.143 124.469 285.745 124.337 286.298 124.083L364.839 83.3126C370.149 80.5476 376.148 79.3852 382.106 79.9669C388.065 80.5486 393.725 82.8492 398.4 86.589C403.075 90.3288 406.562 95.3465 408.437 101.032C410.313 106.717 410.496 112.825 408.964 118.612L363.427 290.696C361.802 297.237 358.071 303.062 352.808 307.272C347.545 311.482 341.043 313.844 334.306 313.994ZM30.9073 105.904C30.4179 105.897 29.932 105.987 29.4776 106.169C29.0232 106.351 28.6093 106.621 28.2598 106.963C27.5358 107.455 26.99 108.167 26.7037 108.994C26.4175 109.821 26.4061 110.718 26.6713 111.552L72.0311 284.166C72.2916 285.101 72.8421 285.93 73.6032 286.532C74.3644 287.135 75.297 287.48 76.267 287.52H334.306C335.292 287.541 336.254 287.218 337.027 286.606C337.801 285.994 338.336 285.131 338.541 284.166L384.078 112.082C384.247 111.256 384.186 110.4 383.901 109.606C383.616 108.813 383.118 108.114 382.461 107.585C381.805 107.056 381.015 106.719 380.18 106.609C379.344 106.499 378.494 106.622 377.724 106.963L300.065 147.734C296.338 149.641 292.264 150.775 288.088 151.067C283.912 151.36 279.72 150.806 275.763 149.437C271.807 148.069 268.168 145.915 265.065 143.105C261.961 140.295 259.458 136.887 257.706 133.085L209.346 29.128C209.021 28.3245 208.458 27.6398 207.732 27.1664C207.006 26.693 206.152 26.4536 205.286 26.4806C204.439 26.4369 203.6 26.672 202.899 27.1502C202.197 27.6283 201.672 28.323 201.403 29.128L153.749 133.085C152.075 136.875 149.647 140.285 146.612 143.107C143.578 145.929 140.001 148.104 136.099 149.499C132.133 150.876 127.927 151.429 123.739 151.126C119.552 150.822 115.47 149.668 111.743 147.734L33.0252 106.963L30.9073 105.904Z" fill="url(#paint0_radial_4051_12329)"></path> </g> <defs> <radialGradient id="paint0_radial_4051_12329" cx="0" cy="0" r="1" gradientUnits="userSpaceOnUse" gradientTransform="translate(125.84 45.8555) rotate(47.3334) scale(197.657 209.072)"> <stop stop-color="#9C4FFF"></stop> <stop offset="1" stop-color="#7000FF"></stop> </radialGradient> <clipPath id="clip0_4051_12329"> <rect width="410" height="314" fill="white"></rect> </clipPath> </defs> </svg> 