<?xml version="1.0" standalone="no"?>
<!DOCTYPE svg PUBLIC "-//W3C//DTD SVG 20010904//EN"
 "http://www.w3.org/TR/2001/REC-SVG-20010904/DTD/svg10.dtd">
<svg version="1.0" xmlns="http://www.w3.org/2000/svg"
 width="556.000000pt" height="449.000000pt" viewBox="0 0 556.000000 449.000000"
 preserveAspectRatio="xMidYMid meet">

<g transform="translate(0.000000,449.000000) scale(0.100000,-0.100000)"
fill="#000000" stroke="none">
<path d="M2815 4273 c-27 -2 -95 -15 -150 -28 -55 -13 -140 -31 -189 -39 -103
-18 -141 -38 -246 -131 -86 -76 -162 -182 -185 -258 -20 -66 -51 -282 -60
-413 l-6 -101 32 -7 c41 -8 183 -7 233 2 46 8 50 18 67 146 5 43 19 123 30
178 11 54 21 143 23 197 2 53 8 107 14 118 15 27 56 37 96 23 53 -17 69 -62
75 -220 l6 -135 87 0 c77 -1 90 -3 108 -23 25 -27 31 -27 78 -3 50 26 79 30
262 36 85 3 181 10 212 16 42 9 65 9 85 0 16 -6 42 -13 60 -16 68 -11 78 -20
96 -82 10 -34 18 -111 21 -188 2 -71 9 -146 15 -166 10 -31 15 -36 36 -31 14
2 25 9 26 16 0 6 2 20 4 31 41 243 55 561 27 652 -22 72 -102 155 -241 247
-118 79 -136 87 -287 135 -165 52 -180 54 -329 44z m20 -38 l30 -13 -30 0
c-16 0 -46 6 -65 13 l-35 13 35 1 c19 0 49 -6 65 -14z m115 5 c13 -9 13 -10 0
-10 -8 0 -22 5 -30 10 -13 9 -13 10 0 10 8 0 22 -5 30 -10z m175 -40 c27 -12
33 -19 20 -19 -28 -1 -97 24 -88 32 10 10 24 8 68 -13z m-40 -40 c3 -5 -1 -10
-9 -10 -8 0 -18 5 -21 10 -3 6 1 10 9 10 8 0 18 -4 21 -10z m-118 -16 c-3 -3
-12 -4 -19 -1 -8 3 -5 6 6 6 11 1 17 -2 13 -5z m106 -18 c51 -10 57 -14 43
-25 -13 -11 -21 -11 -48 1 -18 8 -44 20 -58 26 -33 14 -9 14 63 -2z m167 -82
c0 -2 -11 -4 -25 -4 -14 0 -25 4 -25 9 0 4 11 6 25 3 14 -2 25 -6 25 -8z"/>
<path d="M2609 3251 c7 -5 12 -12 12 -17 -1 -5 4 -10 9 -10 6 -1 11 -2 13 -3
1 -2 15 -4 31 -6 52 -7 167 -46 161 -55 -3 -4 -44 -8 -93 -8 -87 0 -179 -23
-166 -43 3 -5 -1 -9 -8 -9 -9 0 -9 -3 2 -10 8 -5 33 -9 55 -9 22 0 63 -4 90
-9 41 -9 52 -8 58 4 5 8 13 12 19 8 7 -4 6 -9 -2 -14 -7 -4 7 -13 35 -23 35
-11 55 -13 76 -5 36 12 57 5 67 -22 7 -19 9 -19 27 -4 16 13 17 15 3 10 -14
-4 -21 7 -36 57 -11 38 -15 64 -9 68 11 8 1 60 -11 57 -4 -1 -22 6 -40 15 -18
10 -61 20 -95 22 -148 11 -210 13 -198 6z m174 -118 c3 -5 -16 -7 -41 -5 -80
5 -90 9 -25 11 34 0 64 -2 66 -6z"/>
<path d="M3240 3199 c-72 -11 -74 -13 -106 -103 -13 -36 -29 -63 -40 -67 -17
-6 -16 -7 6 -13 23 -6 25 -11 26 -69 0 -40 6 -72 18 -92 9 -16 14 -21 11 -10
-10 29 -19 141 -12 158 4 11 16 12 51 7 25 -4 47 -3 48 2 2 4 52 3 111 -3 59
-6 111 -9 114 -5 9 9 -37 55 -72 71 -16 8 -52 19 -79 26 -62 15 -44 27 55 34
99 7 119 13 119 31 0 18 -14 24 -66 29 -21 2 -57 6 -79 8 -22 3 -69 1 -105 -4z
m117 -125 c-3 -3 -12 -4 -19 -1 -8 3 -5 6 6 6 11 1 17 -2 13 -5z"/>
<path d="M3590 3068 c0 -13 -3 -48 -6 -78 -3 -36 -2 -50 4 -40 13 20 21 129
10 136 -4 3 -8 -5 -8 -18z"/>
<path d="M1870 3077 c0 -5 16 -41 35 -81 19 -39 39 -95 46 -124 6 -29 22 -65
35 -80 l23 -27 1 26 c0 15 -7 32 -15 39 -8 6 -21 37 -30 68 -22 76 -93 210
-95 179z"/>
<path d="M2714 2998 c-8 -12 89 -9 106 2 11 7 -2 9 -43 8 -32 -2 -61 -6 -63
-10z"/>
<path d="M3219 2971 c17 -31 94 -51 135 -35 31 12 15 24 -31 24 -27 0 -57 7
-67 15 -29 22 -49 20 -37 -4z"/>
<path d="M2961 2944 c0 -11 3 -14 6 -6 3 7 2 16 -1 19 -3 4 -6 -2 -5 -13z"/>
<path d="M2910 2940 c0 -5 7 -7 15 -4 8 4 15 8 15 10 0 2 -7 4 -15 4 -8 0 -15
-4 -15 -10z"/>
<path d="M2170 2895 c-7 -25 -7 -62 0 -79 11 -30 16 -5 9 44 -3 25 -7 41 -9
35z"/>
<path d="M2881 2824 c-19 -13 -42 -24 -52 -24 -10 0 -20 -4 -24 -9 -7 -12 41
1 82 23 31 15 52 37 36 35 -4 0 -23 -12 -42 -25z"/>
<path d="M3173 2782 c-9 -6 -7 -15 7 -37 11 -17 20 -41 20 -55 0 -24 48 -128
72 -157 7 -9 7 -13 -1 -13 -7 0 -9 -4 -6 -10 3 -5 -4 -12 -17 -14 -57 -13
-434 13 -519 35 -60 15 -60 59 1 131 21 25 45 22 65 -8 29 -44 54 -64 121 -94
58 -27 71 -29 132 -24 78 7 99 19 112 63 11 41 2 45 -79 32 -48 -8 -72 -7
-109 4 -26 8 -70 15 -98 15 -38 0 -53 4 -58 16 -10 26 -7 79 6 92 20 20 -13
15 -47 -8 -16 -11 -38 -20 -48 -20 -10 0 -21 -8 -24 -17 -4 -10 -15 -27 -25
-37 -9 -10 -16 -22 -13 -25 2 -4 -7 -28 -20 -54 -20 -42 -21 -50 -8 -62 8 -8
20 -15 26 -15 7 -1 28 -14 47 -30 21 -19 46 -30 65 -30 16 0 47 -4 67 -9 24
-6 38 -5 40 1 6 16 68 -1 68 -18 0 -8 5 -14 10 -14 5 0 9 6 7 13 -1 7 12 13
37 15 32 3 38 1 33 -12 -8 -20 0 -20 19 -1 19 18 35 20 31 3 -3 -20 78 -11
141 15 51 20 55 21 67 4 11 -15 14 -15 24 -3 7 8 22 16 34 18 50 7 27 67 -60
159 -30 32 -33 40 -24 58 7 12 17 21 24 21 7 1 -4 8 -23 16 -19 8 -46 26 -60
39 -15 14 -30 21 -37 17z"/>
<path d="M2669 2741 c12 -8 51 -4 51 5 0 2 -15 4 -32 4 -23 0 -29 -3 -19 -9z"/>
<path d="M3465 2728 c-11 -7 -51 -15 -90 -19 l-70 -6 58 -2 c51 -1 127 19 127
33 0 8 -2 7 -25 -6z"/>
<path d="M2021 2691 c-13 -23 -43 -34 -90 -33 -28 1 -31 -1 -21 -13 7 -8 23
-15 36 -15 31 0 104 39 104 55 0 23 -18 27 -29 6z"/>
<path d="M2354 2685 c-30 -30 -23 -49 17 -43 17 3 29 0 29 -6 0 -6 4 -5 9 3 9
14 -11 71 -25 71 -3 0 -16 -11 -30 -25z"/>
<path d="M2135 2678 c-9 -31 -25 -122 -25 -148 0 -58 31 -28 44 42 4 20 13 39
21 42 20 7 19 62 -1 70 -24 9 -34 7 -39 -6z"/>
<path d="M1625 2656 c-18 -13 -18 -15 -2 -31 10 -9 15 -21 11 -26 -7 -13 -24
-1 -24 17 0 8 -4 14 -8 14 -15 0 -52 -46 -53 -66 0 -16 -1 -17 -7 -2 -6 14
-16 9 -65 -31 -79 -65 -156 -158 -223 -270 -31 -52 -84 -129 -118 -170 -33
-42 -77 -101 -96 -131 -19 -30 -55 -80 -79 -110 -63 -78 -97 -158 -122 -290
-19 -100 -21 -134 -14 -270 4 -101 3 -171 -4 -200 -6 -25 -14 -162 -17 -305
-4 -174 -11 -279 -20 -318 -16 -63 -33 -265 -34 -389 l0 -78 750 0 c413 0 750
4 750 8 0 10 270 33 370 31 l75 -2 -74 -8 c-41 -5 -79 -13 -85 -19 -7 -7 90
-10 296 -10 284 0 307 1 311 18 4 16 5 16 6 0 1 -13 10 -18 31 -18 37 0 37 8
0 63 -16 24 -36 68 -44 98 -9 30 -24 79 -35 109 -25 67 -28 234 -9 461 10 125
9 174 -5 335 -11 126 -24 209 -38 249 -37 108 -102 280 -109 290 -5 6 -20 36
-34 69 l-26 59 40 -44 c21 -24 39 -49 40 -55 0 -6 7 -18 16 -25 14 -11 18 -10
30 6 8 10 21 20 29 21 42 6 96 100 94 161 -2 30 -3 32 -6 11 -3 -16 -17 -37
-34 -49 -18 -12 -28 -27 -25 -35 3 -8 1 -14 -3 -14 -5 0 -16 -3 -25 -6 -20 -8
55 130 88 161 13 12 34 50 46 84 23 61 46 94 35 49 -20 -88 -35 -175 -35 -208
0 -21 -9 -80 -19 -131 -27 -132 -36 -219 -23 -219 12 0 32 61 32 97 0 12 5 25
10 28 15 9 12 -55 -6 -150 -16 -77 -16 -95 1 -276 34 -371 30 -471 -31 -655
-14 -44 -26 -106 -27 -139 -2 -53 2 -65 31 -107 18 -26 38 -50 43 -54 15 -9
79 -144 79 -166 0 -17 18 -18 279 -18 l279 0 6 32 c3 18 17 60 31 93 13 34 27
81 31 106 4 24 11 52 16 62 8 16 12 17 26 5 23 -19 210 -127 292 -168 36 -18
79 -44 97 -59 18 -14 46 -36 62 -48 l29 -23 511 0 c391 0 511 3 511 12 0 9 3
9 12 0 7 -7 36 -12 65 -12 51 0 53 1 53 28 0 70 -159 69 -183 -1 -2 -6 -17 -1
-35 12 -24 16 -32 30 -32 52 0 41 28 39 32 -3 4 -43 29 -43 40 -1 10 39 39 49
94 34 87 -24 84 -29 84 128 l0 140 -30 23 c-23 18 -30 32 -32 65 -3 40 -4 41
-38 40 -73 -3 -141 3 -136 12 3 5 34 12 68 16 l62 7 -29 24 c-17 13 -34 24
-39 24 -5 0 -18 9 -30 21 -36 36 -98 79 -113 79 -25 0 -77 -32 -125 -76 -26
-24 -54 -44 -63 -44 -23 0 81 95 127 117 21 10 38 22 38 26 0 4 -21 17 -46 27
-56 25 -68 19 -119 -55 -42 -60 -49 -67 -36 -32 14 36 45 87 54 87 4 0 7 17 7
38 0 43 -23 72 -58 72 -11 0 -23 4 -26 9 -3 5 -36 18 -73 30 -38 11 -85 32
-105 46 -46 31 -48 31 -48 -2 0 -16 -5 -35 -10 -43 -7 -11 -10 -5 -10 23 0 21
-7 51 -15 66 -17 34 -87 97 -115 104 -17 4 -18 2 -9 -15 6 -11 9 -21 7 -23 -7
-7 -45 32 -59 59 -20 42 -47 56 -63 34 -19 -26 -26 -22 -26 17 0 57 -34 106
-92 136 -21 11 -38 26 -38 33 0 8 -14 26 -31 40 -17 14 -28 26 -24 26 10 0
-54 88 -125 172 -36 42 -90 109 -120 148 -30 40 -64 80 -75 89 -12 9 -25 22
-29 29 -7 12 -4 12 14 2 20 -11 21 -10 10 9 -25 47 -81 91 -138 107 -109 31
-116 37 -344 279 -58 60 -68 67 -82 56 -9 -8 -24 -14 -34 -15 -27 -2 -57 -28
-78 -66 -10 -19 -18 -38 -19 -42 0 -3 -4 -10 -9 -15 -6 -5 -6 -2 -1 7 8 13 7
13 -8 1 -9 -7 -17 -19 -17 -25 0 -6 -28 -30 -63 -53 -192 -129 -433 -48 -620
211 -52 71 -79 86 -125 68 -15 -6 -54 -16 -87 -21 -60 -10 -324 -24 -400 -22
-42 2 -102 32 -148 76 -31 29 -127 214 -127 244 0 27 -13 33 -35 17z m916
-750 c20 -8 59 -18 87 -22 28 -3 56 -12 62 -19 8 -9 -3 -9 -42 1 -29 8 -61 14
-71 14 -31 0 -91 37 -116 72 l-24 33 34 -32 c19 -18 50 -39 70 -47z m1355
-162 c-30 -22 -38 -17 -20 12 13 18 20 22 28 14 8 -8 6 -15 -8 -26z m-46 -19
c0 -8 -82 -45 -100 -44 -15 0 48 34 78 42 9 3 18 5 20 6 1 0 2 -1 2 -4z
m-1390 -149 c0 -5 -7 -1 -15 10 -8 10 -14 24 -14 29 0 6 6 1 14 -9 8 -11 15
-24 15 -30z m1286 -3 c88 -93 106 -127 26 -48 -75 73 -92 95 -76 95 3 0 26
-21 50 -47z m-1216 -123 c28 -55 39 -93 23 -77 -8 9 -62 137 -57 137 2 0 17
-27 34 -60z m57 -152 c-3 -8 -6 -5 -6 6 -1 11 2 17 5 13 3 -3 4 -12 1 -19z
m58 -109 c28 -72 27 -111 0 -45 -48 113 -56 139 -41 127 8 -7 27 -44 41 -82z
m-490 20 c10 -14 1 -21 -19 -13 -9 3 -13 10 -10 15 7 12 21 11 29 -2z m1815
-202 c0 -18 -2 -19 -10 -7 -13 20 -13 43 0 35 6 -3 10 -16 10 -28z m-382 16
c-10 -2 -26 -2 -35 0 -10 3 -2 5 17 5 19 0 27 -2 18 -5z m1251 -107 c10 -12 8
-13 -9 -9 -25 7 -37 23 -17 23 8 0 20 -6 26 -14z m72 -73 c15 -40 -4 -46 -22
-7 -14 28 -14 34 -2 34 7 0 18 -12 24 -27z m87 -45 c-4 -30 -42 -48 -104 -48
-41 0 -55 5 -74 25 -28 30 -22 43 9 16 16 -14 36 -18 84 -17 56 1 62 3 65 24
2 12 8 22 13 22 6 0 9 -10 7 -22z m287 -230 c-27 -17 -69 -47 -93 -66 -23 -19
-45 -32 -48 -30 -8 9 99 96 137 112 56 25 57 18 4 -16z m-2351 -224 c3 -8 2
-12 -4 -9 -6 3 -10 10 -10 16 0 14 7 11 14 -7z m24 -49 c-3 -3 -9 2 -12 12 -6
14 -5 15 5 6 7 -7 10 -15 7 -18z m2464 -21 c-12 -8 -28 -13 -35 -11 -7 3 -1 9
13 15 37 16 47 14 22 -4z m78 -69 c-7 -9 -15 -13 -18 -10 -3 2 1 11 8 20 7 9
15 13 18 10 3 -2 -1 -11 -8 -20z"/>
<path d="M2232 2641 c7 -9 13 -17 14 -19 1 -2 18 0 38 3 44 9 49 34 6 33 -16
-1 -30 -5 -30 -10 0 -4 -5 -8 -11 -8 -5 0 -8 4 -5 8 3 5 -1 9 -9 9 -12 0 -12
-3 -3 -16z"/>
<path d="M3121 1190 c0 -36 4 -72 9 -80 12 -19 12 96 0 125 -6 14 -9 0 -9 -45z"/>
<path d="M3133 715 c1 -69 3 -125 4 -125 2 0 10 17 18 38 18 42 21 144 6 185
-21 55 -30 26 -28 -98z"/>
</g>
</svg>
