<?xml version="1.0" encoding="UTF-8" standalone="no"?> <svg xmlns:inkscape="http://www.inkscape.org/namespaces/inkscape" xmlns:sodipodi="http://sodipodi.sourceforge.net/DTD/sodipodi-0.dtd" xmlns="http://www.w3.org/2000/svg" xmlns:svg="http://www.w3.org/2000/svg" xmlns:rdf="http://www.w3.org/1999/02/22-rdf-syntax-ns#" xmlns:cc="http://creativecommons.org/ns#" xmlns:dc="http://purl.org/dc/elements/1.1/" id="Ebene_1" x="0px" y="0px" viewBox="0 0 432.99999 96.4" xml:space="preserve" width="433" height="96.400002" sodipodi:docname="Bosch-logo.svg" inkscape:version="1.2.1 (9c6d41e4, 2022-07-14)"><metadata id="metadata32"></metadata><defs id="defs30"></defs> <style type="text/css" id="style2"> .st0{fill:#E20015;} .st1{fill:#575757;} </style> <g id="g25" transform="translate(-52.6,-71.5)"> <g id="g16"> <g id="g14"> <path class="st0" d="m 237.8,118.4 c 0,0 8.8,-3 8.8,-13 0,-11.7 -8.3,-17.5 -19.7,-17.5 H 197 v 63.6 h 32.5 c 10,0 19.8,-7 19.8,-17.7 0,-12.7 -11.5,-15.3 -11.5,-15.4 z m -25.2,-17.3 h 11.6 c 3.6,0 6,2.4 6,6 0,2.8 -2.2,5.8 -6.3,5.8 h -11.4 v -11.8 z m 11.7,37.1 H 212.7 V 125.7 H 224 c 5.7,0 8.4,2.5 8.4,6.2 0,4.6 -3.4,6.3 -8.1,6.3 z" id="path4"></path> <path class="st0" d="m 283.7,86.3 c -18.4,0 -29.2,14.7 -29.2,33.3 0,18.7 10.8,33.3 29.2,33.3 18.5,0 29.2,-14.6 29.2,-33.3 0,-18.6 -10.7,-33.3 -29.2,-33.3 z m 0,51.4 c -9,0 -13.5,-8.1 -13.5,-18.1 0,-10 4.5,-18 13.5,-18 9,0 13.6,8.1 13.6,18 0,10 -4.6,18.1 -13.6,18.1 z" id="path6"></path> <path class="st0" d="m 346.8,112.8 -2.2,-0.5 c -5.4,-1.1 -9.7,-2.5 -9.7,-6.4 0,-4.2 4.1,-5.9 7.7,-5.9 5.3,0 10,2.6 13,5.9 l 9.9,-9.8 c -4.5,-5.1 -11.8,-10 -23.2,-10 -13.4,0 -23.5,7.5 -23.5,20 0,11.4 8.2,17 18.2,19.1 l 2.2,0.5 c 8.3,1.7 11.4,3 11.4,7 0,3.8 -3.4,6.3 -8.6,6.3 -6.2,0 -11.8,-2.7 -16.1,-8.2 l -10.1,10 c 5.6,6.7 12.7,11.9 26.4,11.9 11.9,0 24.6,-6.8 24.6,-20.7 0.1,-14.5 -10.9,-17.3 -20,-19.2 z" id="path8"></path> <path class="st0" d="m 402.3,137.7 c -7,0 -14.3,-5.8 -14.3,-18.5 0,-11.3 6.8,-17.6 13.9,-17.6 5.6,0 8.9,2.6 11.5,7.1 l 12.8,-8.5 c -6.4,-9.7 -14,-13.8 -24.5,-13.8 -19.2,0 -29.6,14.9 -29.6,32.9 0,18.9 11.5,33.7 29.4,33.7 12.6,0 18.6,-4.4 25.1,-13.8 l -12.9,-8.7 c -2.6,4.2 -5.4,7.2 -11.4,7.2 z" id="path10"></path> <polygon class="st0" points="432.9,87.8 432.9,151.4 449.6,151.4 449.6,126.3 468.9,126.3 468.9,151.4 485.6,151.4 485.6,87.8 468.9,87.8 468.9,111.2 449.6,111.2 449.6,87.8 " id="polygon12"></polygon> </g> </g> <g id="_x38_7_x2F_87_x2F_87__x7C__0_x2F_0_x2F_0"> <g id="g22"> <path class="st1" d="m 100.8,71.5 c -26.6,0 -48.2,21.6 -48.2,48.2 0,26.6 21.6,48.2 48.2,48.2 26.6,0 48.2,-21.6 48.2,-48.2 0,-26.6 -21.6,-48.2 -48.2,-48.2 z m 0,91.9 c -24.1,0 -43.7,-19.6 -43.7,-43.7 0,-24.1 19.6,-43.7 43.7,-43.7 24.1,0 43.7,19.6 43.7,43.7 0,24.1 -19.6,43.7 -43.7,43.7 z" id="path18"></path> <path class="st1" d="m 120.7,89.6 h -3.3 v 16.5 H 84.3 V 89.6 h -3.4 c -9.7,6.5 -16.2,17.5 -16.2,30.1 0,12.6 6.5,23.6 16.2,30.1 h 3.4 v -16.5 h 33.1 v 16.5 h 3.3 c 9.8,-6.5 16.2,-17.5 16.2,-30.1 0,-12.6 -6.4,-23.6 -16.2,-30.1 z m -41,53.7 C 73,137.4 69.1,128.9 69.1,119.7 69.1,110.5 73,102 79.7,96.1 Z m 37.7,-14.6 H 84.3 v -18.1 h 33.1 c 0,0.1 0,18.1 0,18.1 z m 4.5,14.5 v -10 0 -27.1 0 -10 c 6.6,5.9 10.5,14.4 10.5,23.5 0,9.2 -3.9,17.7 -10.5,23.6 z" id="path20"></path> </g> </g> </g> </svg> 