    <?xml version="1.0" encoding="UTF-8"?> <!-- Generator: Adobe Illustrator 13.0.0, SVG Export Plug-In . SVG Version: 6.00 Build 14948) --> <svg xmlns="http://www.w3.org/2000/svg" xmlns:xlink="http://www.w3.org/1999/xlink" x="0px" y="0px" width="300px" height="300px" viewBox="0 0 300 300" xml:space="preserve"> <g id="Layer_2"> <circle fill="#FFFF00" cx="150.167" cy="149.833" r="133.167"></circle> </g> <g id="Layer_3"> <circle fill="#FE5A10" cx="150.167" cy="150.327" r="107.473"></circle> </g> <g id="Layer_4"> <circle fill="#FFFF00" cx="150.167" cy="149.833" r="76.343"></circle> </g> <g id="Layer_6"> <path fill="#FFFFFF" d="M38.437,130.373c0,0,11.257-38.94,13.83-41.09c2.495-2.069,5.288-2.479,9.924-3.162l112.467-18.036 l-7.474,21.89c4.339,1.391,8.502,3.228,12.405,5.459l35.058-5.438l-11.764,37.337c0.021,0.08,6.075-3.052,11.258-4.33 c9.335-2.999,20.03-3.993,27.941-3.422c5.827,0.36,10.956,3.236,13.477,7.722c2.687,4.462,1.063,12.553-0.464,18.878 c-3.294,13.688-8.092,30.828-13.487,40.36c-7.187,12.705-19.24,13.472-30.607,15.663c-7.981,0.928-16.365,1.925-22.256-0.635 l-2.321-0.964c-2.766-1.925-3.448-2.262-5.448-5.012l-3.522,11.579l-30.248,5.197c-7.258,1.435-17.369,3.113-23.031-1.449 c-1.932-1.408-3.249-2.815-4.832-5.117l-3.767,11.467l-29.14,5.006l-5.267,17.252l-41.824,6.92l38.022-122.725L38.437,130.373z"></path> <path fill="#0B3D91" d="M214.237,154.816l10.172-1.661c0.676-3.286,4.739-10.132-1.536-9.479 C215.452,144.305,215.43,151.849,214.237,154.816 M219.995,172.021l23.047-3.973l-5.093,13.328 c-2.841,5.875-7.942,12.39-19.206,13.904c-2.097,0.507-15.035,2.26-17.76,2.563c-6.034,0.267-16.975,0.144-15.077-14.03 c3.615-18.938,9.255-31.924,12.55-40.097c4.402-10.652,9.489-12.939,16.56-15.362c10.887-2.839,14.734-2.833,21.842-3.452 c12.405-0.544,15.461,4.547,13.941,14.679l-6.003,22.794l-33.225,5.598c-1.249,3.999-3.118,8.93-2.613,10.572 c0.369,2.714,5.912,1.86,8.487-0.304C218.913,176.279,219.888,172.611,219.995,172.021"></path> <path fill="#0B3D91" d="M146.762,187.486c-0.261,2.324,0.482,2.291,1.464,3.006c0.857,0.246,6.295-0.47,7.747-1.289l11.045-35.176 l-5.64,0.799c-3.566,0.385-4.196,1.792-5.326,3.93 M172.569,136.357l11.013-35.616l22.701-3.668l-33.172,105.479l-32.408,5.214 c-8.144,1.418-17.311,0-17.159-11.062c0.827-10.337,9.658-37.66,14.418-46.198c3.151-7.107,11.753-10.514,16.639-11.185 L172.569,136.357"></path> <path fill="#0B3D91" d="M157.458,100.582c-2.067,5.51-3.664,4.5-10.925,5.864l-32.126,5.361L76.739,234.401l-29.12,4.808 l38.028-122.729l-38.606,6.605l7.003-22.9c2.473-8.146,2.292-7.419,13.621-9.226l98.457-15.668L157.458,100.582z"></path> <path fill="#0B3D91" d="M116.126,137.034c5.376,5.164,14.949,4.814,21.384-0.781c6.437-5.595,7.293-14.319,1.921-19.488 c-5.371-5.166-14.946-4.816-21.383,0.781C111.611,123.146,110.755,131.871,116.126,137.034"></path> <polygon fill="#0B3D91" points="133.508,142.733 111.405,212.767 89.54,216.316 111.589,146.358 "></polygon> <g> <path fill="#0B3D91" d="M254.111,196.211c0.899,0,1.598,0.698,1.598,1.568c0,0.891-0.698,1.579-1.607,1.579 c-0.899,0-1.616-0.688-1.616-1.579c0-0.87,0.717-1.568,1.616-1.568H254.111z M254.093,196.526c-0.689,0-1.206,0.564-1.206,1.253 c0,0.699,0.517,1.254,1.225,1.254c0.689,0.01,1.196-0.555,1.196-1.254c0-0.688-0.507-1.253-1.206-1.253H254.093z M253.854,198.593 h-0.364v-1.56c0.144-0.028,0.345-0.058,0.604-0.058c0.296,0,0.43,0.048,0.545,0.125c0.086,0.066,0.153,0.191,0.153,0.335 c0,0.182-0.134,0.315-0.325,0.373v0.019c0.152,0.048,0.239,0.173,0.287,0.383c0.048,0.239,0.076,0.335,0.114,0.383h-0.393 c-0.048-0.058-0.076-0.191-0.124-0.373c-0.028-0.172-0.124-0.249-0.325-0.249h-0.172V198.593z M253.862,197.713h0.173 c0.201,0,0.363-0.067,0.363-0.229c0-0.144-0.105-0.239-0.335-0.239c-0.096,0-0.162,0.01-0.201,0.019V197.713z"></path> </g> </g> </svg> 