<?xml version="1.0" encoding="UTF-8"?> <svg xmlns="http://www.w3.org/2000/svg" width="1000" height="357" viewBox="0 0 1000 357" fill="none"> <g clip-path="url(#clip0_252_1974)"> <path d="M110.307 356.244C80.5116 355.06 56.1341 346.907 37.0729 331.764C33.4352 328.871 24.7668 320.198 21.8586 316.54C14.1291 306.82 8.87397 297.361 5.36887 286.866C-5.41683 254.56 0.134182 212.167 21.2464 165.642C39.3229 125.81 67.2157 86.3052 115.879 31.591C123.047 23.5399 144.394 -0.00585938 144.532 -0.00585938C144.583 -0.00585938 143.42 2.00943 141.955 4.46353C129.302 25.6573 118.476 50.6215 112.578 72.2338C103.103 106.912 104.246 136.673 115.925 159.749C123.981 175.647 137.792 189.417 153.323 197.03C180.511 210.351 220.318 211.453 268.93 200.254C272.277 199.479 438.123 155.453 637.48 102.417C836.837 49.3766 999.975 6.01453 1000 6.05023C1000.06 6.09623 536.838 204.31 296.374 307.142C258.292 323.422 248.108 327.534 230.205 333.82C184.44 349.892 143.445 357.56 110.307 356.244V356.244Z" fill="white"></path> </g> <defs> <clipPath id="clip0_252_1974"> <rect width="1000" height="356.39" fill="white"></rect> </clipPath> </defs> </svg> 