<?xml version="1.0" encoding="UTF-8"?> <svg xmlns="http://www.w3.org/2000/svg" width="225px" height="94px" viewBox="0 0 2250 940" preserveAspectRatio="xMidYMid meet"> <g id="layer101" fill="#fe4230" stroke="none"> <path d="M510 470 l0 -350 158 0 c172 0 216 8 262 47 43 35 60 74 60 132 0 61 -12 95 -44 124 l-24 23 29 19 c81 54 92 203 22 278 -48 50 -99 69 -195 75 l-88 5 0 -65 0 -64 72 -12 c80 -12 108 -33 108 -82 0 -44 -32 -64 -111 -68 l-69 -4 0 -68 0 -68 55 -4 c34 -3 62 -12 75 -23 20 -18 26 -60 12 -83 -12 -17 -68 -32 -124 -32 l-48 0 0 285 0 285 -75 0 -75 0 0 -350z"></path> <path d="M1295 806 c-91 -29 -150 -78 -193 -161 -22 -42 -27 -67 -30 -150 -5 -122 16 -188 83 -263 66 -73 145 -106 255 -106 188 0 312 103 341 284 11 67 -1 162 -27 212 -14 28 -16 28 -105 28 l-90 0 24 -32 c33 -44 47 -91 47 -152 -1 -205 -246 -281 -348 -108 -22 39 -27 59 -27 117 0 89 29 145 95 183 44 27 48 27 263 30 l217 4 0 64 0 64 -232 -1 c-158 0 -246 -4 -273 -13z"></path> </g> </svg> 