<?xml version="1.0" standalone="no"?>
<!DOCTYPE svg PUBLIC "-//W3C//DTD SVG 20010904//EN"
 "http://www.w3.org/TR/2001/REC-SVG-20010904/DTD/svg10.dtd">
<svg version="1.0" xmlns="http://www.w3.org/2000/svg"
 width="3000.000000pt" height="2000.000000pt" viewBox="0 0 3000.000000 2000.000000"
 preserveAspectRatio="xMidYMid meet">

<g transform="translate(0.000000,2000.000000) scale(0.100000,-0.100000)"
fill="#000000" stroke="none">
<path d="M15483 15817 c-787 -463 -1435 -845 -1438 -849 -4 -3 899 -1586 2006
-3517 l2013 -3511 1953 0 1952 0 -54 93 c-29 50 -1161 2011 -2515 4357 -1353
2346 -2466 4266 -2473 4267 -6 1 -656 -377 -1444 -840z"/>
<path d="M12145 12754 c-803 -454 -1462 -827 -1463 -829 -2 -2 505 -898 1127
-1992 l1131 -1988 0 -417 0 -418 420 0 420 0 2 413 3 412 1529 3 c1233 2 1527
5 1523 15 -12 32 -3216 5622 -3223 5624 -5 1 -666 -369 -1469 -823z"/>
<path d="M8731 9765 c-789 -459 -1438 -838 -1443 -843 -5 -5 107 -215 261
-493 l269 -484 1952 -3 c1073 -1 1950 2 1948 6 -9 24 -1544 2652 -1548 2651
-3 0 -650 -376 -1439 -834z"/>
<path d="M11728 7201 l-3 -710 -70 45 c-477 309 -1186 339 -1716 73 -405 -202
-707 -551 -849 -978 -65 -197 -90 -354 -90 -574 0 -458 173 -885 490 -1207
540 -549 1376 -674 2090 -313 80 40 146 73 148 73 1 0 2 -45 2 -100 l0 -100
420 0 420 0 -2 2248 -3 2247 -417 3 -418 2 -2 -709z m-725 -1205 c367 -110
629 -399 708 -781 21 -100 14 -256 -15 -368 -47 -181 -135 -327 -283 -467
-108 -103 -220 -171 -350 -216 -131 -45 -224 -58 -358 -51 -437 23 -802 335
-890 762 -20 100 -21 286 -1 380 63 296 249 541 510 672 161 81 263 104 451
99 115 -3 155 -8 228 -30z"/>
<path d="M16850 7201 l0 -710 -77 53 c-254 175 -572 256 -948 243 -179 -6
-291 -23 -445 -68 -296 -86 -543 -232 -760 -449 -63 -64 -145 -158 -183 -210
-77 -108 -194 -337 -232 -454 -157 -486 -93 -1011 178 -1445 126 -203 326
-406 532 -541 322 -211 751 -316 1142 -281 267 24 493 95 705 224 42 26 79 47
82 47 3 0 6 -45 6 -100 l0 -100 420 0 420 0 -2 2248 -3 2247 -417 3 -418 2 0
-709z m-730 -1196 c169 -46 316 -131 441 -255 293 -291 369 -724 190 -1095
-137 -285 -390 -476 -705 -531 -478 -84 -958 227 -1098 712 -33 115 -33 332 0
454 100 366 390 642 762 725 89 20 321 14 410 -10z"/>
<path d="M24199 7887 c-155 -53 -261 -175 -291 -336 -21 -110 23 -241 111
-334 184 -195 502 -177 646 35 72 107 93 247 56 369 -69 220 -304 340 -522
266z m245 -58 c179 -66 262 -308 173 -502 -32 -70 -74 -117 -139 -153 -49 -27
-60 -29 -158 -29 -98 0 -109 2 -158 29 -93 52 -153 144 -172 263 -27 163 65
339 203 392 71 27 179 28 251 0z"/>
<path d="M24180 7495 l0 -225 30 0 30 0 0 96 0 95 42 -3 42 -3 40 -92 41 -93
42 0 42 0 -19 45 c-11 25 -29 66 -40 91 l-20 46 25 20 c78 61 70 175 -17 228
-27 16 -51 20 -135 20 l-103 0 0 -225z m210 145 c12 -12 20 -33 20 -55 0 -56
-27 -75 -105 -75 l-65 0 0 75 0 75 65 0 c52 0 69 -4 85 -20z"/>
<path d="M12940 5120 l0 -1680 425 0 425 0 0 1680 0 1680 -425 0 -425 0 0
-1680z"/>
<path d="M23112 6789 c-529 -44 -948 -300 -1107 -677 -55 -130 -67 -193 -72
-367 -4 -138 -2 -172 16 -247 41 -174 118 -315 236 -434 108 -109 176 -149
354 -211 257 -89 376 -116 859 -193 307 -50 413 -84 496 -160 116 -107 113
-239 -11 -371 -155 -166 -455 -226 -741 -149 -250 68 -379 213 -417 468 l-7
42 -439 0 c-241 0 -439 -3 -439 -7 0 -43 34 -216 55 -283 179 -567 748 -882
1550 -857 527 17 901 149 1146 404 36 37 80 90 98 116 51 75 110 209 138 315
24 88 27 115 27 287 1 173 -1 197 -22 265 -93 294 -337 515 -707 639 -111 37
-270 69 -570 116 -384 60 -547 100 -650 161 -50 29 -111 93 -125 130 -42 110
38 259 171 319 88 39 191 54 374 54 241 1 354 -30 455 -125 64 -60 98 -133
113 -240 l11 -84 419 0 418 0 -7 53 c-33 268 -131 475 -310 654 -287 288 -764
427 -1312 382z"/>
<path d="M6680 6783 c-90 -9 -261 -47 -357 -78 -284 -93 -572 -285 -764 -508
-195 -227 -326 -491 -391 -789 -20 -91 -23 -131 -22 -338 0 -205 3 -248 22
-337 49 -227 137 -434 269 -633 93 -141 299 -351 443 -453 180 -127 412 -228
632 -276 417 -90 944 -9 1278 197 l65 40 3 -99 3 -99 419 0 420 0 0 1670 0
1670 -420 0 -420 0 0 -129 0 -130 -52 36 c-189 127 -468 224 -730 252 -91 10
-319 12 -398 4z m386 -764 c363 -64 666 -345 766 -710 32 -119 32 -364 0 -484
-93 -338 -352 -595 -692 -686 -124 -33 -349 -34 -468 -1 -232 63 -451 221
-580 417 -176 268 -204 575 -80 873 91 219 300 430 516 522 64 27 183 63 242
73 52 9 239 7 296 -4z"/>
<path d="M19458 6775 c-774 -106 -1361 -699 -1464 -1479 -19 -144 -14 -404 10
-536 193 -1058 1253 -1673 2298 -1333 62 20 178 70 258 110 80 40 146 73 148
73 1 0 2 -45 2 -100 l0 -100 395 0 395 0 0 1670 0 1670 -395 0 -394 0 -3 -130
-3 -129 -70 45 c-313 203 -767 295 -1177 239z m527 -779 c392 -118 665 -441
715 -849 38 -309 -129 -658 -411 -857 -187 -131 -382 -189 -603 -177 -451 23
-825 357 -896 799 -18 110 -8 312 20 408 102 356 376 612 741 695 105 24 322
14 434 -19z"/>
</g>
</svg>
