<?xml version="1.0" standalone="no"?>
<!DOCTYPE svg PUBLIC "-//W3C//DTD SVG 20010904//EN"
 "http://www.w3.org/TR/2001/REC-SVG-20010904/DTD/svg10.dtd">
<svg version="1.0" xmlns="http://www.w3.org/2000/svg"
 width="1024.000000pt" height="428.000000pt" viewBox="0 0 1024.000000 428.000000"
 preserveAspectRatio="xMidYMid meet">

<g transform="translate(0.000000,428.000000) scale(0.100000,-0.100000)"
fill="#000000" stroke="none">
<path d="M2320 2141 l0 -1591 340 0 340 0 2 1298 3 1297 65 3 c121 6 383 -17
482 -42 220 -56 268 -102 268 -256 0 -219 -124 -312 -455 -340 -66 -6 -144
-13 -172 -16 l-53 -5 0 -304 0 -303 83 -6 c45 -3 150 -10 232 -16 251 -18 372
-55 444 -136 45 -52 61 -100 61 -187 0 -165 -95 -270 -298 -326 -38 -10 -171
-36 -295 -57 l-227 -37 0 -290 0 -290 133 7 c422 21 597 44 760 100 136 47
243 114 352 221 173 169 246 354 246 620 0 137 -18 242 -62 356 -57 149 -137
247 -275 339 -43 29 -83 57 -88 61 -6 5 32 51 90 111 156 160 192 251 201 508
8 232 -24 369 -121 504 -110 155 -281 269 -464 312 -170 40 -280 46 -944 51
l-648 5 0 -1591z"/>
<path d="M6140 3685 c-377 -52 -679 -220 -923 -513 -132 -158 -206 -287 -262
-455 -59 -177 -70 -265 -69 -582 0 -412 23 -562 113 -749 166 -343 407 -576
744 -716 130 -54 217 -76 367 -89 176 -16 876 -30 1528 -31 l552 0 0 290 0
290 -107 0 c-256 0 -1367 21 -1563 30 -317 15 -375 31 -565 155 -282 183 -402
468 -381 902 10 205 54 338 166 504 210 309 581 439 930 327 204 -65 382 -210
487 -397 89 -157 124 -303 124 -511 -1 -287 -63 -476 -232 -704 -43 -58 -79
-109 -79 -112 0 -12 723 4 764 16 55 17 88 56 129 154 84 200 121 433 114 711
-6 258 -47 444 -146 666 -206 461 -603 743 -1148 814 -138 18 -410 18 -543 0z"/>
</g>
</svg>
