<?xml version="1.0" standalone="no"?>
<!DOCTYPE svg PUBLIC "-//W3C//DTD SVG 20010904//EN"
 "http://www.w3.org/TR/2001/REC-SVG-20010904/DTD/svg10.dtd">
<svg version="1.0" xmlns="http://www.w3.org/2000/svg"
 width="2560.000000pt" height="911.000000pt" viewBox="0 0 2560.000000 911.000000"
 preserveAspectRatio="xMidYMid meet">

<g transform="translate(0.000000,911.000000) scale(0.100000,-0.100000)"
fill="#000000" stroke="none">
<path d="M3437 8823 c-659 -727 -1063 -1193 -1429 -1653 -877 -1104 -1422
-2045 -1744 -3015 -297 -896 -343 -1706 -134 -2360 172 -536 573 -1042 1068
-1348 338 -209 717 -341 1192 -414 150 -23 201 -26 554 -30 388 -5 491 -1 786
33 670 76 1516 293 2370 606 444 163 600 228 2715 1133 737 315 2074 887 2970
1270 897 383 1707 730 1800 770 94 40 746 319 1450 620 1216 520 1794 767
3695 1580 1157 495 4444 1902 6042 2586 428 183 776 334 775 336 -4 3 -3333
-880 -8377 -2222 -431 -115 -4007 -1065 -5075 -1349 -258 -68 -978 -259 -1600
-425 -621 -165 -1240 -329 -1375 -365 -135 -35 -627 -166 -1095 -290 -1295
-343 -1301 -344 -1679 -406 -511 -85 -1064 -111 -1451 -70 -434 46 -830 166
-1110 335 -190 114 -428 322 -568 495 -467 579 -604 1341 -411 2300 125 625
441 1406 838 2073 25 42 44 77 41 77 -2 0 -114 -120 -248 -267z"/>
</g>
</svg>
