<?xml version="1.0" encoding="UTF-8"?> <svg xmlns="http://www.w3.org/2000/svg" width="304" height="90" viewBox="0 0 304 90" fill="none"> <path d="M73.199 29.253C69.476 28.0308 65.6715 27.0725 61.8137 26.385V46.2877C61.8137 60.6116 55.7243 68.139 44.5276 68.139C33.3308 68.139 27.2414 60.6116 27.2414 46.2877V26.385C23.3839 27.0734 19.5794 28.0318 15.8561 29.253V46.3977C15.8561 54.0039 18.8777 61.2986 24.2561 66.677C29.6345 72.0555 36.9292 75.077 44.5354 75.077C52.1416 75.077 59.4363 72.0555 64.8148 66.677C70.1932 61.2986 73.2147 54.0039 73.2147 46.3977L73.199 29.253ZM49.627 15.4319C47.9612 15.2826 46.2483 15.2119 44.5118 15.2119C42.7754 15.2119 41.0939 15.2826 39.4203 15.4319V39.1296H49.6348L49.627 15.4319ZM89.0237 44.4412C89.0377 53.2482 86.4388 61.8613 81.556 69.1907C76.6731 76.5202 69.7257 82.2364 61.593 85.616C53.4603 88.9956 44.5079 89.8867 35.8685 88.1766C27.2292 86.4664 19.2914 82.2319 13.0595 76.0088C6.82764 69.7858 2.58188 61.8539 0.859531 53.217C-0.862822 44.5801 0.0156439 35.6264 3.38376 27.4889C6.75188 19.3514 12.4583 12.396 19.7808 7.50277C27.1033 2.60955 35.7127 -0.00149906 44.5197 4.44518e-05C50.3615 -0.00821692 56.1475 1.13513 61.5471 3.36472C66.9466 5.5943 71.8537 8.86638 75.9878 12.9938C80.1218 17.1213 83.4017 22.0232 85.6398 27.4192C87.878 32.8152 89.0306 38.5995 89.0316 44.4412H89.0237Z" fill="white"></path> <path d="M224.682 45.3034C224.682 51.0393 221.437 53.703 216.636 53.703C211.835 53.703 208.677 51.0707 208.677 45.3034V26.3594H198.273V45.6649C198.273 58.2366 208.724 63.1868 216.675 63.1868C224.533 63.1868 235.085 58.2288 235.085 45.6649V26.3594H224.682V45.3034Z" fill="white"></path> <path d="M189.465 35.136V26.3594H155.718V35.136H175.707L154.9 53.7422V62.5189H190.738V53.7422H168.706L189.465 35.136Z" fill="white"></path> <path d="M287.476 25.6562C280.876 25.6562 275.942 28.3435 273.475 32.4293C270.937 28.3435 265.515 25.6562 259.85 25.6562C248.732 25.6562 243.02 32.7279 243.02 41.5124V62.5229H253.423V42.9581C253.423 38.8016 255.646 35.1008 260.667 35.1008C265.688 35.1008 268.32 38.6759 268.32 42.8324V62.5229H278.723V42.8246C278.723 38.668 281.214 35.0929 286.211 35.0929C291.209 35.0929 293.589 38.8016 293.589 42.9503V62.5151H304V41.5124C304 32.7357 298.618 25.6562 287.5 25.6562H287.476Z" fill="white"></path> <path d="M137.67 45.3034C137.67 51.0393 134.425 53.703 129.624 53.703C124.823 53.703 121.665 51.0707 121.665 45.3034V26.3594H111.262V45.6649C111.262 58.2366 121.712 63.1868 129.671 63.1868C137.529 63.1868 148.073 58.2288 148.073 45.6649V26.3594H137.67V45.3034Z" fill="white"></path> </svg> 