<?xml version="1.0" encoding="UTF-8"?> <svg xmlns="http://www.w3.org/2000/svg" width="1000" height="1000" viewBox="0 0 1000 1000" fill="none"> <g clip-path="url(#clip0_252_1976)"> <path d="M501.39 0.000747681L393.81 301.621L466.941 301.644C519.621 301.659 542.039 343.195 525.45 389.71L418.48 689.62H310.84L428.53 359.62H373.108L255.428 689.62H146.858L388.338 12.5096C165.958 63.2406 -0.00195312 262.22 -0.00195312 499.97C-0.00195312 734.02 160.818 930.48 377.978 984.95L621.948 299.94H798.638C835.183 299.94 881.146 324.581 861.284 380.664L762.081 660.774C749.409 696.554 719.288 703.805 695.292 703.805H586.672L481.322 999.595C487.525 999.822 493.74 999.978 499.994 999.978C776.134 999.978 999.994 776.128 999.994 499.978C999.993 224.298 776.884 0.748047 501.374 -0.00195312L501.39 0.000747681ZM709.54 358.811L607.07 646.451H661.637L764.127 358.811H709.54Z" fill="white"></path> </g> <defs> <clipPath id="clip0_252_1976"> <rect width="1000" height="999.98" fill="white"></rect> </clipPath> </defs> </svg> 