<?xml version="1.0" encoding="UTF-8" standalone="no"?> <!-- Created with Inkscape (http://www.inkscape.org/) --> <svg xmlns:dc="http://purl.org/dc/elements/1.1/" xmlns:cc="http://creativecommons.org/ns#" xmlns:rdf="http://www.w3.org/1999/02/22-rdf-syntax-ns#" xmlns:svg="http://www.w3.org/2000/svg" xmlns="http://www.w3.org/2000/svg" width="400" height="360" id="svg2985" xml:space="preserve"> <metadata id="metadata2991"></metadata> <defs id="defs2989"></defs> <g transform="matrix(1.25,0,0,-1.25,0,359.99995)" id="g2993"> <g transform="matrix(2.8598468,0,0,2.8598468,-714.6333,-1842.9179)" id="g3213"> <path d="m 336.50272,682.24239 -68.666,0 0,43.332 68.666,0 0,-43.332 z" id="path3019" style="fill:white;fill-opacity:1;fill-rule:nonzero;stroke:none"></path> <path d="m 276.71282,646.91459 0,4.759 -6.375,0 0,-4.759 -2.091,0 0,10.778 2.091,0 0,-4.451 6.375,0 0,4.451 2.09,0 0,-10.778 -2.09,0 z" id="path3023" style="fill:#f26522;fill-opacity:1;fill-rule:nonzero;stroke:none"></path> <path d="m 287.10282,656.13899 -2.522,-5.166 5.031,0 -2.509,5.166 z m 4.495,-9.224 -1.254,2.581 -6.51,0 -1.269,-2.581 -2.24,0 5.599,10.778 2.478,0 5.569,-10.778 -2.373,0 z" id="path3027" style="fill:#f26522;fill-opacity:1;fill-rule:nonzero;stroke:none"></path> <path d="m 300.68952,656.18389 -3.105,0 0,-3.195 3.105,0 c 1.657,0 2.358,0.449 2.358,1.615 0,1.118 -0.701,1.58 -2.358,1.58 m 2.748,-9.269 c -0.136,0.58 -0.27,1.384 -0.39,1.85 l -0.327,1.327 c -0.314,1.24 -0.762,1.387 -2.359,1.387 l -2.777,0 0,-4.564 -2.09,0 0,10.778 5.688,0 c 2.821,0 4.016,-1.138 4.016,-2.897 0,-1.925 -2.091,-2.477 -2.582,-2.55 1.298,-0.108 2.014,-0.468 2.298,-2.138 l 0.388,-1.849 c 0.105,-0.584 0.254,-1.137 0.358,-1.344 l -2.223,0 z" id="path3039" style="fill:#f26522;fill-opacity:1;fill-rule:nonzero;stroke:none"></path> <path d="m 320.87272,646.91459 0,9.42 -4.403,-9.42 -2.285,0 -4.405,9.42 0,-9.42 -1.865,0 0,10.778 3.314,0 4.196,-9.048 4.18,9.048 3.299,0 0,-10.778 -2.031,0 z" id="path3043" style="fill:#f26522;fill-opacity:1;fill-rule:nonzero;stroke:none"></path> <path d="m 331.20762,656.13899 -2.525,-5.166 5.031,0 -2.506,5.166 z m 4.493,-9.224 -1.257,2.581 -6.508,0 -1.269,-2.581 -2.237,0 5.595,10.778 2.481,0 5.566,-10.778 -2.371,0 z" id="path3047" style="fill:#f26522;fill-opacity:1;fill-rule:nonzero;stroke:none"></path> <path d="m 347.55402,646.91459 -6.076,8.927 0,-8.927 -1.881,0 0,10.778 2.865,0 6.075,-8.928 0,8.928 1.882,0 0,-10.778 -2.865,0 z" id="path3051" style="fill:#f26522;fill-opacity:1;fill-rule:nonzero;stroke:none"></path> <path d="m 255.55342,650.75329 c -0.912,0 -1.516,-0.585 -1.516,-1.565 0,-0.978 0.561,-1.538 1.516,-1.538 0.93,0 1.515,0.609 1.515,1.557 0,0.961 -0.552,1.546 -1.515,1.546 m 0.301,-3.818 c -0.972,0 -1.523,0.342 -1.85,0.787 0,-0.133 -0.033,-0.512 -0.042,-0.627 l -1.047,0 c 0.009,0.226 0.034,0.705 0.034,0.89 l 0,5.154 1.088,0 0,-2.496 c 0.403,0.462 0.93,0.814 1.827,0.814 1.279,0 2.352,-0.789 2.352,-2.244 0,-1.391 -1.08,-2.278 -2.362,-2.278" id="path3055" style="fill:#f26522;fill-opacity:1;fill-rule:nonzero;stroke:none"></path> <path d="m 261.26532,645.48679 -1.199,0 0.889,1.601 -2.295,4.21 1.256,0 1.642,-3.289 1.549,3.289 1.155,0 -2.997,-5.811 z" id="path3059" style="fill:#f26522;fill-opacity:1;fill-rule:nonzero;stroke:none"></path> <path d="m 333.54352,687.00369 -16.776,0 0,33.72 5.536,0 0,-28.854 c 0,-1.575 1.28,-2.855 2.853,-2.855 1.576,0 2.853,1.28 2.853,2.855 l -0.003,5.871 5.537,0 0,-10.737 z m -20.804,22.48 c 0,-1.678 -1.468,-4.655 -3.647,-4.655 2.179,0 3.647,-1.886 3.647,-3.314 l 0,-10.107 c 0,-1.719 -1.383,-4.404 -5.535,-4.404 l -11.072,0 0,33.72 11.072,0 c 2.138,0 5.535,-1.762 5.535,-5.494 l 0,-5.746 z m -20.801,-16.608 c 0,-3.358 -2.18,-6.374 -8.389,-6.374 -6.207,0 -8.387,3.942 -8.387,6.374 l 0,4.865 5.535,0 0.003,-5.871 c 0,-1.575 1.279,-2.855 2.853,-2.855 1.575,0 2.85,1.32 2.85,2.895 l -0.001,28.814 5.536,0 0,-27.848 z m -14.008,14.947 c 1.768,0 3.202,-1.433 3.202,-3.205 0,-1.768 -1.434,-3.203 -3.202,-3.203 -1.77,0 -3.203,1.435 -3.203,3.203 0,1.772 1.433,3.205 3.203,3.205 m 5.117,12.901 -5.117,-11.658 -5.117,11.658 10.234,0 z m -30.365,-57.205 97.97,0 0,80.522 -97.97,0 0,-80.522 z m 52.006,54.018 -3.02,0 0,-11.323 3.02,-0.01 c 2.013,0 2.516,0.345 2.516,5.628 0,5.284 -0.503,5.705 -2.516,5.705 m 0.335,-14.179 -3.355,0 0,-13.585 3.355,-0.008 c 2.181,0 2.181,1.477 2.181,6.759 0,5.286 0,6.834 -2.181,6.834" id="path3063" style="fill:#f26522;fill-opacity:1;fill-rule:nonzero;stroke:none"></path> <path d="m 353.38292,666.23349 c 0,-1.548 1.256,-2.801 2.8,-2.801 1.543,0 2.799,1.253 2.799,2.801 0,1.541 -1.256,2.801 -2.799,2.801 -1.544,0 -2.8,-1.26 -2.8,-2.801 m 0.529,0 c 0,1.253 1.014,2.268 2.271,2.268 1.258,0 2.27,-1.015 2.27,-2.268 0,-1.26 -1.012,-2.274 -2.27,-2.274 -1.257,0 -2.271,1.014 -2.271,2.274 m 1.197,-1.582 0.529,0 0,1.36 0.463,0 0.793,-1.36 0.605,0 -0.87,1.385 c 0.49,0.053 0.848,0.28 0.848,0.853 0,0.667 -0.416,0.93 -1.195,0.93 l -1.173,0 0,-3.168 z m 0.529,1.8 0,0.932 0.644,0 c 0.309,0 0.665,-0.07 0.665,-0.449 0,-0.428 -0.301,-0.483 -0.673,-0.483 l -0.636,0 z" id="path3067" style="fill:black;fill-opacity:1;fill-rule:nonzero;stroke:none"></path> </g> </g> </svg> 