<?xml version="1.0" encoding="UTF-8"?> <svg xmlns="http://www.w3.org/2000/svg" width="73" height="95" viewBox="0 0 73 95" fill="none"> <g clip-path="url(#clip0_4051_12333)"> <path fill-rule="evenodd" clip-rule="evenodd" d="M49.6526 19.8732V35.3877H23.9674V19.8732C23.9674 16.4672 25.3205 13.2006 27.7289 10.7921C30.1374 8.38368 33.4039 7.03062 36.81 7.03062C40.2161 7.03062 43.4827 8.38368 45.8911 10.7921C48.2996 13.2006 49.6526 16.4672 49.6526 19.8732ZM16.9368 19.8732V35.3877H14.6976C12.7199 35.3916 10.8101 36.11 9.32013 37.4105C7.83012 38.711 6.86019 40.5061 6.58896 42.4652L0.964456 82.8678C0.754767 84.3673 0.871882 85.8944 1.30777 87.3444C1.74365 88.7944 2.488 90.133 3.48975 91.2683C4.4915 92.4036 5.72696 93.3088 7.11139 93.9219C8.49582 94.5349 9.99646 94.8412 11.5104 94.8199H62.1309C63.637 94.8277 65.1271 94.5113 66.5001 93.8923C67.8731 93.2733 69.0969 92.3662 70.0883 91.2325C71.0798 90.0987 71.8157 88.765 72.2462 87.3217C72.6766 85.8784 72.7915 84.3594 72.5831 82.8678L67.0523 42.4652C66.7811 40.5061 65.8112 38.711 64.3212 37.4105C62.8311 36.11 60.9214 35.3916 58.9437 35.3877H56.6832V19.8732C56.6832 14.6025 54.5895 9.54769 50.8625 5.82073C47.1356 2.09378 42.0807 0 36.81 0C31.5393 0 26.4845 2.09378 22.7575 5.82073C19.0306 9.54769 16.9368 14.6025 16.9368 19.8732ZM14.6976 42.4183C14.4148 42.4173 14.142 42.5229 13.9336 42.714C13.7251 42.9051 13.5963 43.1677 13.5727 43.4495L8.04195 83.8053C7.96725 84.302 8.00134 84.8091 8.14187 85.2913C8.28239 85.7736 8.526 86.2196 8.85585 86.5985C9.18569 86.9774 9.59389 87.2801 10.0522 87.4857C10.5106 87.6913 11.0081 87.7949 11.5104 87.7893H62.1309C62.6332 87.7906 63.1303 87.6871 63.5904 87.4854C64.0504 87.2836 64.4633 86.988 64.8025 86.6175C65.1228 86.2282 65.3624 85.7791 65.5072 85.2962C65.6521 84.8134 65.6993 84.3065 65.6462 83.8053L60.1154 43.4495C60.0717 43.1676 59.9304 42.9101 59.7163 42.7217C59.5022 42.5333 59.2288 42.4259 58.9437 42.4183H14.6976ZM18.9154 80.4774H54.7247C55.657 80.4774 56.5511 80.107 57.2104 79.4478C57.8696 78.7885 58.24 77.8944 58.24 76.9621C58.24 76.0298 57.8696 75.1356 57.2104 74.4764C56.5511 73.8171 55.657 73.4468 54.7247 73.4468H18.9154C17.983 73.4468 17.0889 73.8171 16.4297 74.4764C15.7704 75.1356 15.4 76.0298 15.4 76.9621C15.4 77.8944 15.7704 78.7885 16.4297 79.4478C17.0889 80.107 17.983 80.4774 18.9154 80.4774Z" fill="url(#paint0_radial_4051_12333)"></path> </g> <defs> <radialGradient id="paint0_radial_4051_12333" cx="0" cy="0" r="1" gradientUnits="userSpaceOnUse" gradientTransform="translate(22.9074 13.8476) rotate(61.8683) scale(49.7693 43.9241)"> <stop stop-color="#9C4FFF"></stop> <stop offset="1" stop-color="#7000FF"></stop> </radialGradient> <clipPath id="clip0_4051_12333"> <rect width="73" height="95" fill="white"></rect> </clipPath> </defs> </svg> 