<?xml version="1.0" encoding="UTF-8"?> <svg xmlns="http://www.w3.org/2000/svg" width="134" height="39" viewBox="0 0 134 39" fill="none"> <path d="M32.069 12.8276C30.4828 12.3103 28.8276 11.8966 27.069 11.5862V20.3103C27.069 26.5862 24.3793 29.8965 19.4828 29.8965C14.5862 29.8965 11.8966 26.5862 11.8966 20.3103V11.5862C10.1379 11.8966 8.48276 12.3103 6.89655 12.8276V20.3448C6.89655 27.2414 12.5517 32.8965 19.4828 32.8965C26.4138 32.8965 32.069 27.2414 32.069 20.3448V12.8276ZM21.7586 6.7931C21.0345 6.72413 20.2759 6.68965 19.5172 6.68965C18.7586 6.68965 18 6.72413 17.2759 6.7931V17.2069H21.7586V6.7931ZM39.0345 19.5172C39.0345 30.2759 30.2759 39 19.5172 39C8.72414 39 0 30.2759 0 19.5172C0 8.72414 8.75862 0 19.5172 0C30.2759 0 39.0345 8.72414 39.0345 19.5172Z" fill="white"></path> <path d="M98.5517 19.8963C98.5517 22.4135 97.1379 23.5859 95.0345 23.5859C92.931 23.5859 91.5517 22.4135 91.5517 19.8963V11.5859H87V20.0687C87 25.5859 91.5862 27.7583 95.069 27.7583C98.5172 27.7583 103.138 25.5859 103.138 20.0687V11.5859H98.5862L98.5517 19.8963Z" fill="white"></path> <path d="M83.1031 15.4135V11.5859H68.31V15.4135H77.0686L67.9307 23.5859V27.448H83.6548V23.5859H73.9996L83.1031 15.4135Z" fill="white"></path> <path d="M126.138 11.2744C123.241 11.2744 121.069 12.4468 120 14.2399C118.897 12.4468 116.517 11.2744 114.035 11.2744C109.173 11.2744 106.655 14.3779 106.655 18.2399V27.4468H111.173V18.8606C111.173 17.033 112.138 15.4123 114.345 15.4123C116.552 15.4123 117.69 16.9986 117.69 18.7917V27.4468H122.241V18.7917C122.241 16.9641 123.345 15.4123 125.517 15.4123C127.724 15.4123 128.759 17.033 128.759 18.8606V27.4468H133.31V18.2399C133.379 14.3779 131 11.2744 126.138 11.2744Z" fill="white"></path> <path d="M60.3794 19.8963C60.3794 22.4135 58.9656 23.5859 56.8621 23.5859C54.7242 23.5859 53.3794 22.4135 53.3794 19.8963V11.5859H48.8276V20.0687C48.8276 25.5859 53.4138 27.7583 56.8966 27.7583C60.3449 27.7583 64.9656 25.5859 64.9656 20.0687V11.5859H60.4138L60.3794 19.8963Z" fill="white"></path> </svg> 